# Blender 3.4.1
# www.blender.org
mtllib grass2.mtl
o Plane.001
v 0.017585 0.099782 -0.005495
v 0.019859 0.000077 -0.002221
v 0.020408 0.000066 -0.006584
v 0.021753 0.000000 -0.004598
v 0.019629 0.066656 -0.003100
v 0.020504 0.033313 -0.002296
v 0.021136 0.033301 -0.006447
v 0.019967 0.066270 -0.006465
v 0.022282 0.033324 -0.004628
v 0.020891 0.066623 -0.004927
v -0.014136 0.075157 -0.019073
v -0.012169 0.000073 -0.017323
v -0.013337 0.000061 -0.020421
v -0.011744 0.000000 -0.019571
v -0.012165 0.050201 -0.018073
v -0.011533 0.025091 -0.017722
v -0.012572 0.025076 -0.020709
v -0.013125 0.049907 -0.020432
v -0.011169 0.025085 -0.019900
v -0.011967 0.050166 -0.019734
v 0.007514 0.100307 -0.022429
v 0.004625 -0.000037 -0.021761
v 0.002059 0.000293 -0.016366
v 0.001167 0.000000 -0.019493
v 0.005448 0.066801 -0.024439
v 0.004210 0.033263 -0.023889
v 0.001626 0.033571 -0.018801
v 0.003573 0.066680 -0.020219
v 0.000922 0.033391 -0.021634
v 0.003040 0.066864 -0.022614
v 0.006182 0.120869 0.009153
v 0.007353 0.000118 0.005085
v 0.003671 0.000097 0.008932
v 0.003797 0.000000 0.006031
v 0.006262 0.080734 0.005600
v 0.006332 0.040351 0.004440
v 0.002722 0.040328 0.008022
v 0.003509 0.080262 0.008632
v 0.002921 0.040342 0.005426
v 0.003716 0.080678 0.006467
v -0.004689 0.109865 -0.007763
v -0.004889 0.000048 -0.004563
v -0.000636 0.000105 -0.006877
v -0.001546 0.000000 -0.004399
v -0.005096 0.073359 -0.004707
v -0.004829 0.036638 -0.003722
v -0.000712 0.036690 -0.005826
v -0.001866 0.072986 -0.006572
v -0.001602 0.036687 -0.003632
v -0.002651 0.073350 -0.004754
v -0.017469 0.092309 -0.013284
v -0.017122 0.000079 -0.011999
v -0.019673 0.000136 -0.015163
v -0.017491 0.000000 -0.014783
v -0.015657 0.061606 -0.012876
v -0.015662 0.030765 -0.012709
v -0.018019 0.030814 -0.015792
v -0.017692 0.061303 -0.015257
v -0.016073 0.030770 -0.015388
v -0.016065 0.061575 -0.014887
v 0.001250 0.129185 -0.015009
v -0.003021 0.000126 -0.013517
v 0.002609 0.000104 -0.012682
v 0.000000 0.000000 -0.011000
v -0.001898 0.086289 -0.012884
v -0.002953 0.043127 -0.012228
v 0.002401 0.043103 -0.011292
v 0.002447 0.085784 -0.012355
v 0.000014 0.043118 -0.009861
v 0.000431 0.086228 -0.011199
v 0.017074 0.061245 -0.002125
v 0.014079 -0.000000 -0.004239
v 0.013274 0.000024 -0.001659
v 0.012675 0.000000 -0.003007
v 0.015441 0.040916 -0.003759
v 0.014339 0.020438 -0.004302
v 0.013506 0.020462 -0.001858
v 0.014864 0.040700 -0.001758
v 0.013011 0.020490 -0.003084
v 0.014479 0.040928 -0.002790
v -0.006340 0.100073 0.007225
v 0.001380 0.000589 0.006737
v -0.001294 0.000518 0.003247
v 0.001060 0.000536 0.003715
v -0.001941 0.067090 0.007088
v 0.000518 0.033819 0.006638
v -0.001948 0.033754 0.003240
v -0.004050 0.066655 0.004452
v 0.000143 0.033852 0.003730
v -0.002326 0.067068 0.004901
v -0.004919 0.120869 0.006726
v -0.010351 0.000118 0.014048
v -0.000020 0.000097 0.009067
v -0.002465 0.000000 0.014824
v -0.007761 0.080734 0.013833
v -0.008779 0.040351 0.016120
v 0.001206 0.040328 0.011620
v 0.000081 0.080262 0.009795
v -0.001153 0.040342 0.016707
v -0.001972 0.080678 0.014005
v 0.004419 0.075157 -0.005018
v 0.008654 0.000073 -0.001250
v 0.006139 0.000061 -0.007923
v 0.009570 0.000000 -0.006091
v 0.008664 0.050201 -0.002866
v 0.010024 0.025091 -0.002110
v 0.007787 0.025076 -0.008542
v 0.006595 0.049907 -0.007945
v 0.010808 0.025085 -0.006800
v 0.009089 0.050166 -0.006442
v -0.019062 0.099782 0.005143
v -0.014164 0.000077 0.012194
v -0.012982 0.000066 0.002797
v -0.010085 0.000000 0.007076
v -0.014659 0.066656 0.010302
v -0.012775 0.033313 0.012034
v -0.011414 0.033301 0.003092
v -0.013931 0.066270 0.003054
v -0.008946 0.033324 0.007011
v -0.011941 0.066623 0.006366
v -0.004441 0.100307 -0.011498
v -0.010664 -0.000037 -0.010059
v -0.016192 0.000293 0.001562
v -0.018112 0.000000 -0.005172
v -0.008892 0.066801 -0.015827
v -0.011558 0.033263 -0.014642
v -0.017123 0.033571 -0.003683
v -0.012930 0.066680 -0.006737
v -0.018640 0.033391 -0.009784
v -0.014078 0.066864 -0.011895
v 0.017537 0.120869 0.009823
v 0.020058 0.000118 0.001061
v 0.012129 0.000097 0.009347
v 0.012400 0.000000 0.003098
v 0.017708 0.080734 0.002170
v 0.017860 0.040351 -0.000329
v 0.010085 0.040328 0.007386
v 0.011779 0.080262 0.008701
v 0.010512 0.040342 0.001794
v 0.012226 0.080678 0.004038
v -0.018768 0.109865 -0.008943
v -0.019198 0.000048 -0.002051
v -0.010038 0.000105 -0.007034
v -0.011999 0.000000 -0.001697
v -0.019644 0.073359 -0.002362
v -0.019070 0.036638 -0.000239
v -0.010202 0.036690 -0.004770
v -0.012687 0.072986 -0.006378
v -0.012119 0.036687 -0.000045
v -0.014378 0.073350 -0.002463
v 0.018691 0.092309 -0.012842
v 0.019438 0.000079 -0.010075
v 0.013944 0.000136 -0.016890
v 0.018641 0.000000 -0.016072
v 0.022592 0.061606 -0.011962
v 0.022583 0.030765 -0.011603
v 0.017506 0.030814 -0.018245
v 0.018209 0.061303 -0.017092
v 0.021696 0.030770 -0.017374
v 0.021713 0.061575 -0.016296
v -0.001559 0.129185 -0.028070
v -0.010759 0.000126 -0.024858
v 0.001366 0.000104 -0.023059
v -0.004253 0.000000 -0.019436
v -0.008340 0.086289 -0.023493
v -0.010613 0.043127 -0.022082
v 0.000918 0.043103 -0.020065
v 0.001018 0.085784 -0.022355
v -0.004223 0.043118 -0.016984
v -0.003325 0.086228 -0.019865
v 0.000398 0.061245 0.000748
v -0.006052 -0.000000 -0.003807
v -0.007787 0.000024 0.001752
v -0.009078 0.000000 -0.001151
v -0.003118 0.040916 -0.002771
v -0.005492 0.020438 -0.003942
v -0.007286 0.020462 0.001322
v -0.004361 0.040700 0.001537
v -0.008353 0.020490 -0.001318
v -0.005191 0.040928 -0.000684
v -0.009918 0.100073 0.003181
v 0.006710 0.000589 0.002129
v 0.000951 0.000518 -0.005388
v 0.006020 0.000536 -0.004380
v -0.000443 0.067090 0.002886
v 0.004854 0.033819 0.001915
v -0.000460 0.033754 -0.005403
v -0.004985 0.066655 -0.002793
v 0.004045 0.033852 -0.004348
v -0.001273 0.067068 -0.001825
v 0.007786 0.120869 -0.020729
v 0.002354 0.000118 -0.013406
v 0.012684 0.000097 -0.018387
v 0.010240 0.000000 -0.012630
v 0.004944 0.080734 -0.013622
v 0.003926 0.040351 -0.011334
v 0.013911 0.040328 -0.015835
v 0.012785 0.080262 -0.017660
v 0.011552 0.040342 -0.010747
v 0.010733 0.080678 -0.013450
vn 0.8366 -0.0149 -0.5476
vn 0.7885 -0.0129 0.6150
vn 0.8202 0.0914 0.5647
vn 0.8070 0.0372 0.5894
vn 0.8471 0.0754 -0.5261
vn 0.8493 0.0303 -0.5270
vn 0.4840 -0.0237 -0.8747
vn 0.9842 -0.0212 0.1759
vn 0.9898 0.0828 0.1160
vn 0.9891 0.0287 0.1444
vn 0.5042 0.0665 -0.8610
vn 0.5054 0.0213 -0.8626
vn -0.9661 0.0079 0.2581
vn -0.5570 -0.0585 -0.8284
vn -0.6006 0.0847 -0.7951
vn -0.5821 0.0106 -0.8130
vn -0.9659 0.1280 0.2249
vn -0.9709 0.0676 0.2299
vn -0.9980 -0.0237 -0.0585
vn -0.2667 -0.0212 -0.9635
vn -0.3231 0.0828 -0.9427
vn -0.2972 0.0287 -0.9544
vn -0.9944 0.0665 -0.0826
vn -0.9963 0.0213 -0.0830
vn 0.9332 -0.0072 0.3594
vn -0.0387 -0.0219 0.9990
vn 0.0195 0.0832 0.9963
vn -0.0078 0.0286 0.9996
vn 0.9208 0.0828 0.3812
vn 0.9233 0.0377 0.3822
vn 0.1855 -0.0290 -0.9822
vn 0.9888 -0.0493 -0.1407
vn 0.9784 0.0551 -0.1993
vn 0.9851 0.0007 -0.1721
vn 0.2114 0.0605 -0.9755
vn 0.2108 0.0154 -0.9774
vn 0.5290 -0.0237 0.8483
vn -0.6322 -0.0212 0.7745
vn -0.5827 0.0828 0.8085
vn -0.6072 0.0287 0.7941
vn 0.5072 0.0665 0.8592
vn 0.5081 0.0213 0.8611
vn -0.9201 0.0154 0.3914
vn -0.6676 0.0072 -0.7445
vn -0.7044 0.1129 -0.7008
vn -0.6887 0.0581 -0.7227
vn -0.9237 0.1059 0.3682
vn -0.9276 0.0609 0.3687
vn 0.2105 0.0051 -0.9776
vn 0.9928 0.0264 -0.1166
vn 0.9761 0.1309 -0.1734
vn 0.9861 0.0767 -0.1471
vn 0.2296 0.0961 -0.9685
vn 0.2323 0.0511 -0.9713
vn 0.9133 -0.0510 0.4041
vn -0.0878 -0.0457 0.9951
vn -0.0275 0.1762 0.9840
vn -0.0561 0.0617 0.9965
vn 0.8952 0.1421 0.4224
vn 0.9033 0.0459 0.4265
vn 0.4835 -0.0510 -0.8738
vn 0.9834 -0.0457 0.1757
vn 0.9777 0.1762 0.1146
vn 0.9876 0.0617 0.1442
vn 0.5002 0.1421 -0.8542
vn 0.5049 0.0459 -0.8619
vn 0.8363 -0.0321 -0.5474
vn 0.7882 -0.0279 0.6148
vn 0.8080 0.1940 0.5563
vn 0.8049 0.0799 0.5880
vn 0.8384 0.1608 -0.5208
vn 0.8479 0.0651 -0.5261
vn -0.9660 0.0170 0.2581
vn -0.5536 -0.1253 -0.8233
vn -0.5929 0.1802 -0.7849
vn -0.5820 0.0228 -0.8129
vn -0.9384 0.2678 0.2184
vn -0.9629 0.1443 0.2280
vn -0.9970 -0.0510 -0.0584
vn -0.2665 -0.0457 -0.9628
vn -0.3191 0.1762 -0.9312
vn -0.2967 0.0617 -0.9530
vn -0.9865 0.1421 -0.0819
vn -0.9955 0.0459 -0.0829
vn 0.9331 -0.0156 0.3594
vn -0.0387 -0.0472 0.9981
vn 0.0192 0.1769 0.9840
vn -0.0078 0.0615 0.9981
vn 0.9095 0.1762 0.3766
vn 0.9209 0.0809 0.3812
vn 0.1852 -0.0623 -0.9807
vn 0.9845 -0.1058 -0.1401
vn 0.9730 0.1179 -0.1982
vn 0.9851 0.0016 -0.1721
vn 0.2101 0.1295 -0.9691
vn 0.2107 0.0331 -0.9770
vn 0.5285 -0.0510 0.8474
vn -0.6317 -0.0457 0.7738
vn -0.5755 0.1762 0.7986
vn -0.6062 0.0617 0.7929
vn 0.5032 0.1421 0.8524
vn 0.5076 0.0459 0.8603
vn -0.9197 0.0333 0.3912
vn -0.6676 0.0155 -0.7444
vn -0.6886 0.2377 -0.6851
vn -0.6845 0.1243 -0.7183
vn -0.9054 0.2236 0.3609
vn -0.9214 0.1302 0.3662
vn 0.2104 0.0109 -0.9775
vn 0.9916 0.0568 -0.1164
vn 0.9470 0.2736 -0.1683
vn 0.9758 0.1634 -0.1456
vn 0.2258 0.2036 -0.9527
vn 0.2312 0.1095 -0.9667
vt 0.661445 0.772597
vt 0.590322 0.000695
vt 0.682532 0.000421
vt 0.641858 0.000186
vt 0.614449 0.515920
vt 0.596008 0.258445
vt 0.682160 0.258081
vt 0.682532 0.512656
vt 0.645831 0.258235
vt 0.651893 0.514914
vt 0.915824 0.581764
vt 0.862273 0.000570
vt 0.931701 0.000362
vt 0.901076 0.000186
vt 0.880439 0.388502
vt 0.866554 0.194639
vt 0.931421 0.194365
vt 0.931701 0.386045
vt 0.904068 0.194481
vt 0.908632 0.387745
vt 0.458989 0.776329
vt 0.360240 0.001188
vt 0.487212 0.000627
vt 0.431200 0.000186
vt 0.394929 0.517844
vt 0.369471 0.259769
vt 0.486275 0.259029
vt 0.487212 0.514288
vt 0.437069 0.258786
vt 0.445636 0.515883
vt 0.333899 0.935327
vt 0.247792 0.000803
vt 0.359428 0.000470
vt 0.310185 0.000186
vt 0.277002 0.624574
vt 0.254676 0.312855
vt 0.358978 0.312414
vt 0.359428 0.620622
vt 0.314995 0.312601
vt 0.322334 0.623356
vt 0.566303 0.850307
vt 0.488023 0.000747
vt 0.589510 0.000444
vt 0.544744 0.000186
vt 0.514578 0.567806
vt 0.494281 0.284428
vt 0.589101 0.284027
vt 0.589510 0.564214
vt 0.549117 0.284197
vt 0.555789 0.566699
vt 0.841968 0.714223
vt 0.776220 0.000657
vt 0.861461 0.000403
vt 0.823861 0.000186
vt 0.798524 0.476944
vt 0.781476 0.238928
vt 0.861117 0.238591
vt 0.861461 0.473927
vt 0.827534 0.238733
vt 0.833138 0.476014
vt 0.107226 0.999814
vt 0.015180 0.000845
vt 0.134515 0.000490
vt 0.081876 0.000186
vt 0.046405 0.667631
vt 0.022538 0.334416
vt 0.134034 0.333945
vt 0.134515 0.663408
vt 0.087018 0.334145
vt 0.094863 0.666329
vt 0.976175 0.474359
vt 0.932513 0.000499
vt 0.989120 0.000330
vt 0.964150 0.000186
vt 0.947324 0.316788
vt 0.936004 0.158728
vt 0.988891 0.158504
vt 0.989120 0.314785
vt 0.966589 0.158599
vt 0.970311 0.316171
vt 0.754355 0.771379
vt 0.683344 0.000695
vt 0.775408 0.000420
vt 0.734798 0.000186
vt 0.707433 0.515106
vt 0.689021 0.258038
vt 0.775037 0.257674
vt 0.775408 0.511848
vt 0.738765 0.257828
vt 0.744817 0.514102
vt 0.221447 0.935468
vt 0.135327 0.000803
vt 0.246980 0.000470
vt 0.197730 0.000186
vt 0.164541 0.624667
vt 0.142212 0.312902
vt 0.246530 0.312461
vt 0.246980 0.620716
vt 0.202540 0.312647
vt 0.209881 0.623449
vt 0.915824 0.581764
vt 0.862273 0.000570
vt 0.931701 0.000362
vt 0.901076 0.000186
vt 0.880439 0.388502
vt 0.866554 0.194639
vt 0.931421 0.194365
vt 0.931701 0.386045
vt 0.904068 0.194481
vt 0.908632 0.387745
vt 0.661445 0.772597
vt 0.590322 0.000695
vt 0.682532 0.000421
vt 0.641858 0.000186
vt 0.614449 0.515920
vt 0.596008 0.258445
vt 0.682160 0.258081
vt 0.682532 0.512656
vt 0.645831 0.258235
vt 0.651893 0.514914
vt 0.458989 0.776329
vt 0.360240 0.001188
vt 0.487212 0.000627
vt 0.431200 0.000186
vt 0.394929 0.517844
vt 0.369471 0.259769
vt 0.486275 0.259029
vt 0.487212 0.514288
vt 0.437069 0.258786
vt 0.445636 0.515883
vt 0.333899 0.935327
vt 0.247792 0.000803
vt 0.359428 0.000470
vt 0.310185 0.000186
vt 0.277002 0.624574
vt 0.254676 0.312855
vt 0.358978 0.312414
vt 0.359428 0.620622
vt 0.314995 0.312601
vt 0.322334 0.623356
vt 0.566303 0.850307
vt 0.488023 0.000747
vt 0.589510 0.000444
vt 0.544744 0.000186
vt 0.514578 0.567806
vt 0.494281 0.284428
vt 0.589101 0.284027
vt 0.589510 0.564214
vt 0.549117 0.284197
vt 0.555789 0.566699
vt 0.841968 0.714223
vt 0.776220 0.000657
vt 0.861461 0.000403
vt 0.823861 0.000186
vt 0.798524 0.476944
vt 0.781476 0.238928
vt 0.861117 0.238591
vt 0.861461 0.473927
vt 0.827534 0.238733
vt 0.833138 0.476014
vt 0.107226 0.999814
vt 0.015180 0.000845
vt 0.134515 0.000490
vt 0.081876 0.000186
vt 0.046405 0.667631
vt 0.022538 0.334416
vt 0.134034 0.333945
vt 0.134515 0.663408
vt 0.087018 0.334145
vt 0.094863 0.666329
vt 0.976175 0.474359
vt 0.932513 0.000499
vt 0.989120 0.000330
vt 0.964150 0.000186
vt 0.947324 0.316788
vt 0.936004 0.158728
vt 0.988891 0.158504
vt 0.989120 0.314785
vt 0.966589 0.158599
vt 0.970311 0.316171
vt 0.754355 0.771379
vt 0.683344 0.000695
vt 0.775408 0.000420
vt 0.734798 0.000186
vt 0.707433 0.515106
vt 0.689021 0.258038
vt 0.775037 0.257674
vt 0.775408 0.511848
vt 0.738765 0.257828
vt 0.744817 0.514102
vt 0.221447 0.935468
vt 0.135327 0.000803
vt 0.246980 0.000470
vt 0.197730 0.000186
vt 0.164541 0.624667
vt 0.142212 0.312902
vt 0.246530 0.312461
vt 0.246980 0.620716
vt 0.202540 0.312647
vt 0.209881 0.623449
s 0
f 9/9/1 4/4/1 3/3/1 7/7/1
f 6/6/2 2/2/2 4/4/2 9/9/2
f 1/1/3 5/5/3 10/10/3
f 5/5/4 6/6/4 9/9/4 10/10/4
f 1/1/5 10/10/5 8/8/5
f 10/10/6 9/9/6 7/7/6 8/8/6
f 19/19/7 14/14/7 13/13/7 17/17/7
f 16/16/8 12/12/8 14/14/8 19/19/8
f 11/11/9 15/15/9 20/20/9
f 15/15/10 16/16/10 19/19/10 20/20/10
f 11/11/11 20/20/11 18/18/11
f 20/20/12 19/19/12 17/17/12 18/18/12
f 29/29/13 24/24/13 23/23/13 27/27/13
f 26/26/14 22/22/14 24/24/14 29/29/14
f 21/21/15 25/25/15 30/30/15
f 25/25/16 26/26/16 29/29/16 30/30/16
f 21/21/17 30/30/17 28/28/17
f 30/30/18 29/29/18 27/27/18 28/28/18
f 39/39/19 34/34/19 33/33/19 37/37/19
f 36/36/20 32/32/20 34/34/20 39/39/20
f 31/31/21 35/35/21 40/40/21
f 35/35/22 36/36/22 39/39/22 40/40/22
f 31/31/23 40/40/23 38/38/23
f 40/40/24 39/39/24 37/37/24 38/38/24
f 49/49/25 44/44/25 43/43/25 47/47/25
f 46/46/26 42/42/26 44/44/26 49/49/26
f 41/41/27 45/45/27 50/50/27
f 45/45/28 46/46/28 49/49/28 50/50/28
f 41/41/29 50/50/29 48/48/29
f 50/50/30 49/49/30 47/47/30 48/48/30
f 59/59/31 54/54/31 53/53/31 57/57/31
f 56/56/32 52/52/32 54/54/32 59/59/32
f 51/51/33 55/55/33 60/60/33
f 55/55/34 56/56/34 59/59/34 60/60/34
f 51/51/35 60/60/35 58/58/35
f 60/60/36 59/59/36 57/57/36 58/58/36
f 69/69/37 64/64/37 63/63/37 67/67/37
f 66/66/38 62/62/38 64/64/38 69/69/38
f 61/61/39 65/65/39 70/70/39
f 65/65/40 66/66/40 69/69/40 70/70/40
f 61/61/41 70/70/41 68/68/41
f 70/70/42 69/69/42 67/67/42 68/68/42
f 79/79/43 74/74/43 73/73/43 77/77/43
f 76/76/44 72/72/44 74/74/44 79/79/44
f 71/71/45 75/75/45 80/80/45
f 75/75/46 76/76/46 79/79/46 80/80/46
f 71/71/47 80/80/47 78/78/47
f 80/80/48 79/79/48 77/77/48 78/78/48
f 89/89/49 84/84/49 83/83/49 87/87/49
f 86/86/50 82/82/50 84/84/50 89/89/50
f 81/81/51 85/85/51 90/90/51
f 85/85/52 86/86/52 89/89/52 90/90/52
f 81/81/53 90/90/53 88/88/53
f 90/90/54 89/89/54 87/87/54 88/88/54
f 99/99/55 94/94/55 93/93/55 97/97/55
f 96/96/56 92/92/56 94/94/56 99/99/56
f 91/91/57 95/95/57 100/100/57
f 95/95/58 96/96/58 99/99/58 100/100/58
f 91/91/59 100/100/59 98/98/59
f 100/100/60 99/99/60 97/97/60 98/98/60
f 109/109/61 104/104/61 103/103/61 107/107/61
f 106/106/62 102/102/62 104/104/62 109/109/62
f 101/101/63 105/105/63 110/110/63
f 105/105/64 106/106/64 109/109/64 110/110/64
f 101/101/65 110/110/65 108/108/65
f 110/110/66 109/109/66 107/107/66 108/108/66
f 119/119/67 114/114/67 113/113/67 117/117/67
f 116/116/68 112/112/68 114/114/68 119/119/68
f 111/111/69 115/115/69 120/120/69
f 115/115/70 116/116/70 119/119/70 120/120/70
f 111/111/71 120/120/71 118/118/71
f 120/120/72 119/119/72 117/117/72 118/118/72
f 129/129/73 124/124/73 123/123/73 127/127/73
f 126/126/74 122/122/74 124/124/74 129/129/74
f 121/121/75 125/125/75 130/130/75
f 125/125/76 126/126/76 129/129/76 130/130/76
f 121/121/77 130/130/77 128/128/77
f 130/130/78 129/129/78 127/127/78 128/128/78
f 139/139/79 134/134/79 133/133/79 137/137/79
f 136/136/80 132/132/80 134/134/80 139/139/80
f 131/131/81 135/135/81 140/140/81
f 135/135/82 136/136/82 139/139/82 140/140/82
f 131/131/83 140/140/83 138/138/83
f 140/140/84 139/139/84 137/137/84 138/138/84
f 149/149/85 144/144/85 143/143/85 147/147/85
f 146/146/86 142/142/86 144/144/86 149/149/86
f 141/141/87 145/145/87 150/150/87
f 145/145/88 146/146/88 149/149/88 150/150/88
f 141/141/89 150/150/89 148/148/89
f 150/150/90 149/149/90 147/147/90 148/148/90
f 159/159/91 154/154/91 153/153/91 157/157/91
f 156/156/92 152/152/92 154/154/92 159/159/92
f 151/151/93 155/155/93 160/160/93
f 155/155/94 156/156/94 159/159/94 160/160/94
f 151/151/95 160/160/95 158/158/95
f 160/160/96 159/159/96 157/157/96 158/158/96
f 169/169/97 164/164/97 163/163/97 167/167/97
f 166/166/98 162/162/98 164/164/98 169/169/98
f 161/161/99 165/165/99 170/170/99
f 165/165/100 166/166/100 169/169/100 170/170/100
f 161/161/101 170/170/101 168/168/101
f 170/170/102 169/169/102 167/167/102 168/168/102
f 179/179/103 174/174/103 173/173/103 177/177/103
f 176/176/104 172/172/104 174/174/104 179/179/104
f 171/171/105 175/175/105 180/180/105
f 175/175/106 176/176/106 179/179/106 180/180/106
f 171/171/107 180/180/107 178/178/107
f 180/180/108 179/179/108 177/177/108 178/178/108
f 189/189/109 184/184/109 183/183/109 187/187/109
f 186/186/110 182/182/110 184/184/110 189/189/110
f 181/181/111 185/185/111 190/190/111
f 185/185/112 186/186/112 189/189/112 190/190/112
f 181/181/113 190/190/113 188/188/113
f 190/190/114 189/189/114 187/187/114 188/188/114
f 199/199/55 194/194/55 193/193/55 197/197/55
f 196/196/56 192/192/56 194/194/56 199/199/56
f 191/191/57 195/195/57 200/200/57
f 195/195/58 196/196/58 199/199/58 200/200/58
f 191/191/59 200/200/59 198/198/59
f 200/200/60 199/199/60 197/197/60 198/198/60
